<svg width="16" height="16" viewBox="0 0 16 16" fill="none" xmlns="http://www.w3.org/2000/svg">
<rect width="16" height="16" rx="2" fill="white"/>
<path d="M2.44549 13V2.81818H6.46254C7.23479 2.81818 7.8927 2.96567 8.43626 3.26065C8.97982 3.55232 9.39412 3.95833 9.67915 4.47869C9.96751 4.99574 10.1117 5.59233 10.1117 6.26847C10.1117 6.9446 9.96585 7.54119 9.67418 8.05824C9.38252 8.57528 8.95993 8.97798 8.40643 9.26634C7.85624 9.55469 7.19005 9.69886 6.40785 9.69886H3.84748V7.97372H6.05984C6.47414 7.97372 6.81552 7.90246 7.08398 7.75994C7.35576 7.61411 7.55794 7.41359 7.69052 7.15838C7.82641 6.89986 7.89435 6.60322 7.89435 6.26847C7.89435 5.9304 7.82641 5.63542 7.69052 5.38352C7.55794 5.12831 7.35576 4.93111 7.08398 4.7919C6.8122 4.64938 6.46751 4.57812 6.04989 4.57812H4.59819V13H2.44549Z" fill="black"/>
<path d="M13.5881 2.81818V13H11.4702V2.81818H13.5881Z" fill="#3E74FF"/>
</svg>
